<svg width="90" height="90" viewBox="0 0 90 90" fill="none" xmlns="http://www.w3.org/2000/svg">
<g filter="url(#filter0_d_8204_46397)">
<path d="M20 44C20 30.1929 31.1929 19 45 19C58.8071 19 70 30.1929 70 44C70 57.8071 58.8071 69 45 69C31.1929 69 20 57.8071 20 44Z" fill="#7F27FF"/>
<path d="M45.2375 32C45.7063 32.0809 46.1841 32.1294 46.6419 32.2484C50.3928 33.2416 52.8297 35.6069 53.7328 39.3536C54.8589 44.0262 52.3414 48.634 47.8447 50.3763C46.3682 50.9483 44.8298 51.143 43.2616 50.8939C39.3904 50.2735 36.7864 48.0905 35.4945 44.4286C34.0986 40.4703 35.75 35.858 39.2909 33.5709C40.6121 32.7175 42.0451 32.1889 43.6172 32.0453C43.6719 32.0359 43.7257 32.0216 43.7778 32.0026L45.2375 32ZM44.573 36.4487C44.1965 36.4454 43.9664 36.5884 43.8233 36.8802C43.4982 37.5382 43.1641 38.1904 42.8526 38.8548C42.7668 39.0386 42.642 39.091 42.4625 39.1136C41.7408 39.2115 41.0195 39.3127 40.2987 39.417C39.986 39.4617 39.7428 39.6144 39.6518 39.9256C39.5607 40.2368 39.6518 40.4904 39.8878 40.7142C40.4274 41.2267 40.9547 41.7494 41.4937 42.267C41.5459 42.3095 41.5848 42.3659 41.6056 42.4297C41.6265 42.4935 41.6285 42.5619 41.6114 42.6267C41.4775 43.3552 41.3656 44.0876 41.2304 44.8161C41.1699 45.1442 41.246 45.412 41.5165 45.6048C41.787 45.7976 42.075 45.7646 42.3617 45.6119C42.9963 45.2729 43.6387 44.9475 44.2713 44.6052C44.3403 44.5603 44.4208 44.536 44.5032 44.5353C44.5856 44.5346 44.6665 44.5576 44.7362 44.6013C45.3864 44.9565 46.0508 45.2975 46.7101 45.6417C46.9852 45.7853 47.2608 45.7821 47.5105 45.5938C47.6234 45.5133 47.7099 45.4013 47.759 45.2721C47.8082 45.1428 47.8179 45.002 47.7868 44.8672C47.6536 44.1142 47.5209 43.3604 47.4039 42.6028C47.399 42.5469 47.4055 42.4905 47.423 42.4371C47.4406 42.3838 47.4688 42.3345 47.506 42.2922C48.0261 41.7708 48.5532 41.2571 49.0872 40.7511C49.3408 40.5117 49.4611 40.2387 49.3473 39.9049C49.2335 39.571 48.9507 39.4468 48.6139 39.4022C47.9078 39.3096 47.2036 39.2016 46.4982 39.1058C46.4234 39.0999 46.3518 39.0731 46.2916 39.0284C46.2315 38.9838 46.1852 38.9232 46.1581 38.8535C45.8428 38.1916 45.508 37.5382 45.1868 36.8796C45.0554 36.5994 44.835 36.4558 44.573 36.4487Z" fill="white"/>
<path d="M36.0103 49.0004C37.6388 50.8947 39.6168 52.0633 42.0001 52.5128C41.9679 52.6003 41.9448 52.6724 41.9156 52.742C41.3967 53.9795 40.8747 55.2152 40.36 56.4546C40.2318 56.7637 40.0513 57.0129 39.7134 57C39.3756 56.9871 39.1276 56.7959 38.9885 56.4424C38.6129 55.4895 38.2216 54.5442 37.829 53.5771C37.2037 53.8025 36.5912 54.024 35.978 54.2442C35.6347 54.3672 35.2908 54.4901 34.945 54.6093C34.6533 54.7103 34.3884 54.6659 34.1781 54.4161C33.9679 54.1663 33.9569 53.8933 34.0766 53.6067C34.7159 52.0852 35.3552 50.5637 36.0103 49.0004Z" fill="white"/>
<path d="M50.7178 53.5733C50.28 54.5248 49.8492 55.4647 49.4142 56.404C49.363 56.5308 49.2879 56.6481 49.1925 56.7501C48.7562 57.1624 48.1544 57.0531 47.8964 56.5153C47.4559 55.5953 47.0244 54.6721 46.588 53.7489C46.3979 53.3475 46.2072 52.9467 46 52.5105C48.6841 52.0634 50.9271 50.8983 52.7693 49.0005C52.8111 49.0841 52.8427 49.1446 52.8715 49.2057C53.5577 50.6539 54.2527 52.1007 54.9217 53.5546C55.0089 53.7593 55.0238 53.9848 54.9642 54.198C54.8441 54.584 54.4091 54.7377 53.9535 54.5943C52.9106 54.2662 51.8691 53.9323 50.8269 53.601C50.8015 53.5926 50.7768 53.5881 50.7178 53.5733Z" fill="white"/>
<path d="M44.4695 39C44.668 39.4124 44.8576 39.7682 45.0121 40.1392C45.1712 40.5233 45.4428 40.6967 45.834 40.7354C46.2106 40.7728 46.5847 40.8411 47.0001 40.9022C46.9365 40.9764 46.8983 41.0335 46.8518 41.0769C46.5802 41.3513 46.3067 41.6245 46.0344 41.8989C45.9385 41.9917 45.8679 42.1088 45.8296 42.2385C45.7913 42.3683 45.7867 42.5061 45.8162 42.6383C45.8938 43.0775 45.9644 43.5181 46.0446 43.9994C45.6515 43.7854 45.2895 43.6055 44.9409 43.396C44.6228 43.2062 44.3225 43.2036 44.0013 43.396C43.6546 43.6041 43.292 43.7854 42.8963 44.0001C42.9739 43.5273 43.0356 43.0946 43.1177 42.6665C43.1497 42.5228 43.1443 42.3728 43.1021 42.2319C43.0599 42.091 42.9823 41.9641 42.8772 41.8641C42.5789 41.5503 42.2933 41.2226 42 40.8983C42.3416 40.8464 42.7106 40.7715 43.0814 40.738C43.4937 40.7006 43.7729 40.5148 43.9383 40.1156C44.0916 39.7525 44.2768 39.4064 44.4695 39Z" fill="white"/>
</g>
<defs>
<filter id="filter0_d_8204_46397" x="0" y="0" width="90" height="90" filterUnits="userSpaceOnUse" color-interpolation-filters="sRGB">
<feFlood flood-opacity="0" result="BackgroundImageFix"/>
<feColorMatrix in="SourceAlpha" type="matrix" values="0 0 0 0 0 0 0 0 0 0 0 0 0 0 0 0 0 0 127 0" result="hardAlpha"/>
<feOffset dy="1"/>
<feGaussianBlur stdDeviation="10"/>
<feComposite in2="hardAlpha" operator="out"/>
<feColorMatrix type="matrix" values="0 0 0 0 0 0 0 0 0 0 0 0 0 0 0 0 0 0 0.05 0"/>
<feBlend mode="normal" in2="BackgroundImageFix" result="effect1_dropShadow_8204_46397"/>
<feBlend mode="normal" in="SourceGraphic" in2="effect1_dropShadow_8204_46397" result="shape"/>
</filter>
</defs>
</svg>
