<svg width="90" height="90" viewBox="0 0 90 90" fill="none" xmlns="http://www.w3.org/2000/svg">
<g filter="url(#filter0_d_8204_46429)">
<path d="M20 44C20 30.1929 31.1929 19 45 19C58.8071 19 70 30.1929 70 44C70 57.8071 58.8071 69 45 69C31.1929 69 20 57.8071 20 44Z" fill="#45B369"/>
<path d="M50.2688 33.5C54.2925 33.5 56.6673 35.8154 56.6673 39.7788H51.731V39.8192C49.4401 39.8192 47.5829 41.6299 47.5829 43.8635C47.5829 46.0971 49.4401 47.9078 51.731 47.9078H56.6673V48.2718C56.6673 52.1846 54.2925 54.5 50.2688 54.5H39.7325C35.7088 54.5 33.334 52.1846 33.334 48.2718V39.7282C33.334 35.8154 35.7088 33.5 39.7325 33.5H50.2688ZM55.7962 41.5178C56.2773 41.5178 56.6673 41.8981 56.6673 42.3671V45.3195C56.6617 45.7862 56.275 46.1633 55.7962 46.1688H51.8244C50.6646 46.184 49.6504 45.4098 49.3873 44.3084C49.2556 43.6247 49.4405 42.9192 49.8926 42.3809C50.3446 41.8427 51.0176 41.5268 51.731 41.5178H55.7962ZM52.291 42.8828H51.9073C51.6717 42.8801 51.4449 42.9694 51.2773 43.1309C51.1097 43.2923 51.0155 43.5125 51.0155 43.7422C51.0154 44.2241 51.4131 44.6163 51.9073 44.6218H52.291C52.7836 44.6218 53.1829 44.2325 53.1829 43.7523C53.1829 43.2721 52.7836 42.8828 52.291 42.8828ZM45.4466 38.0397H38.8614C38.3729 38.0397 37.9752 38.4229 37.9695 38.8991C37.9695 39.381 38.3672 39.7732 38.8614 39.7788H45.4466C45.9391 39.7788 46.3384 39.3895 46.3384 38.9092C46.3384 38.429 45.9391 38.0397 45.4466 38.0397Z" fill="white"/>
</g>
<defs>
<filter id="filter0_d_8204_46429" x="0" y="0" width="90" height="90" filterUnits="userSpaceOnUse" color-interpolation-filters="sRGB">
<feFlood flood-opacity="0" result="BackgroundImageFix"/>
<feColorMatrix in="SourceAlpha" type="matrix" values="0 0 0 0 0 0 0 0 0 0 0 0 0 0 0 0 0 0 127 0" result="hardAlpha"/>
<feOffset dy="1"/>
<feGaussianBlur stdDeviation="10"/>
<feComposite in2="hardAlpha" operator="out"/>
<feColorMatrix type="matrix" values="0 0 0 0 0 0 0 0 0 0 0 0 0 0 0 0 0 0 0.05 0"/>
<feBlend mode="normal" in2="BackgroundImageFix" result="effect1_dropShadow_8204_46429"/>
<feBlend mode="normal" in="SourceGraphic" in2="effect1_dropShadow_8204_46429" result="shape"/>
</filter>
</defs>
</svg>
