<svg width="90" height="90" viewBox="0 0 90 90" fill="none" xmlns="http://www.w3.org/2000/svg">
<g filter="url(#filter0_d_8204_46382)">
<path d="M20 44C20 30.1929 31.1929 19 45 19C58.8071 19 70 30.1929 70 44C70 57.8071 58.8071 69 45 69C31.1929 69 20 57.8071 20 44Z" fill="#00B8F2"/>
<path d="M44.9399 46.9627C48.9429 46.9627 52.361 47.5974 52.361 50.1369C52.361 52.6754 48.9649 53.3332 44.9399 53.3332C40.9368 53.3332 37.5188 52.6985 37.5188 50.16C37.5188 47.6205 40.9149 46.9627 44.9399 46.9627ZM51.3403 45.4335C52.8707 45.4052 54.516 45.6153 55.1239 45.7645C56.412 46.0177 57.2592 46.5347 57.6102 47.2859C57.9068 47.9027 57.9068 48.6182 57.6102 49.2339C57.0732 50.3992 55.3423 50.7732 54.6695 50.8699C54.5306 50.8909 54.4188 50.7701 54.4334 50.6303C54.7771 47.4015 52.0433 45.8706 51.3361 45.5186C51.3058 45.5029 51.2995 45.4787 51.3027 45.464C51.3047 45.4535 51.3173 45.4367 51.3403 45.4335ZM38.6592 45.4339C38.6822 45.4371 38.6937 45.4539 38.6958 45.4634C38.6989 45.4791 38.6926 45.5022 38.6634 45.5191C37.9551 45.871 35.2213 47.4019 35.565 50.6297C35.5796 50.7705 35.4689 50.8903 35.33 50.8703C34.6572 50.7736 32.9262 50.3996 32.3893 49.2344C32.0916 48.6176 32.0916 47.9031 32.3893 47.2863C32.7403 46.5351 33.5865 46.0181 34.8745 45.7639C35.4835 45.6157 37.1278 45.4056 38.6592 45.4339ZM44.9399 34.6665C47.6653 34.6665 49.8507 36.8625 49.8507 39.6048C49.8507 42.3461 47.6653 44.5442 44.9399 44.5442C42.2144 44.5442 40.029 42.3461 40.029 39.6048C40.029 36.8625 42.2144 34.6665 44.9399 34.6665ZM51.6066 35.49C54.2391 35.49 56.3065 37.9813 55.6024 40.7562C55.1271 42.6244 53.4066 43.8652 51.4896 43.8148C51.2974 43.8096 51.1084 43.7917 50.9255 43.7602C50.7929 43.7371 50.726 43.5868 50.8012 43.4754C51.5325 42.3932 51.9493 41.0914 51.9493 39.6939C51.9493 38.2355 51.4938 36.8759 50.703 35.7611C50.678 35.7265 50.6592 35.6729 50.6842 35.6329C50.7051 35.6004 50.7438 35.5836 50.7803 35.5752C51.0467 35.5205 51.3204 35.49 51.6066 35.49ZM38.3913 35.4899C38.6775 35.4899 38.9512 35.5204 39.2186 35.5751C39.2541 35.5835 39.2938 35.6013 39.3147 35.6328C39.3388 35.6728 39.321 35.7264 39.2959 35.761C38.5051 36.8758 38.0497 38.2354 38.0497 39.6938C38.0497 41.0913 38.4665 42.3931 39.1977 43.4753C39.2729 43.5867 39.2061 43.7369 39.0734 43.7601C38.8896 43.7926 38.7015 43.8094 38.5093 43.8147C36.5924 43.8651 34.8719 42.6243 34.3966 40.7561C33.6914 37.9812 35.7588 35.4899 38.3913 35.4899Z" fill="white"/>
</g>
<defs>
<filter id="filter0_d_8204_46382" x="0" y="0" width="90" height="90" filterUnits="userSpaceOnUse" color-interpolation-filters="sRGB">
<feFlood flood-opacity="0" result="BackgroundImageFix"/>
<feColorMatrix in="SourceAlpha" type="matrix" values="0 0 0 0 0 0 0 0 0 0 0 0 0 0 0 0 0 0 127 0" result="hardAlpha"/>
<feOffset dy="1"/>
<feGaussianBlur stdDeviation="10"/>
<feComposite in2="hardAlpha" operator="out"/>
<feColorMatrix type="matrix" values="0 0 0 0 0 0 0 0 0 0 0 0 0 0 0 0 0 0 0.05 0"/>
<feBlend mode="normal" in2="BackgroundImageFix" result="effect1_dropShadow_8204_46382"/>
<feBlend mode="normal" in="SourceGraphic" in2="effect1_dropShadow_8204_46382" result="shape"/>
</filter>
</defs>
</svg>
