<svg width="90" height="90" viewBox="0 0 90 90" fill="none" xmlns="http://www.w3.org/2000/svg">
<g filter="url(#filter0_d_8204_46414)">
<path d="M20 44C20 30.1929 31.1929 19 45 19C58.8071 19 70 30.1929 70 44C70 57.8071 58.8071 69 45 69C31.1929 69 20 57.8071 20 44Z" fill="#174BFA"/>
<path d="M41.9082 47.334C46.5578 47.334 50.4824 48.073 50.4824 50.9304C50.4824 53.7856 46.5326 54.5 41.9082 54.5L41.5924 54.4988C37.0823 54.4653 33.334 53.6961 33.334 50.9036C33.334 48.0484 37.2838 47.334 41.9082 47.334ZM49.1653 45.6137C50.9336 45.5802 52.8354 45.8183 53.5375 45.986C55.026 46.2711 56.0044 46.8513 56.4096 47.6976C56.7532 48.3907 56.7532 49.1956 56.4096 49.8887C55.7897 51.199 53.7897 51.6204 53.0123 51.7289C52.8514 51.7512 52.7224 51.6171 52.7395 51.4583C53.1368 47.8273 49.9781 46.1056 49.1607 45.7099C49.1265 45.6909 49.1185 45.664 49.1219 45.6462C49.1242 45.635 49.139 45.6171 49.1653 45.6137ZM41.9082 33.5C45.0578 33.5 47.5817 35.9718 47.5817 39.0561C47.5817 42.1405 45.0578 44.6123 41.9082 44.6123C38.7598 44.6123 36.2347 42.1405 36.2347 39.0561C36.2347 35.9718 38.7598 33.5 41.9082 33.5ZM49.4735 34.428C52.5158 34.428 54.9039 37.2295 54.09 40.3497C53.5409 42.4526 51.5534 43.8489 49.3388 43.7918C49.1162 43.7874 48.8982 43.7661 48.6859 43.7315C48.5329 43.7046 48.4553 43.5358 48.5432 43.4106C49.3879 42.1932 49.8696 40.7276 49.8696 39.1569C49.8696 37.5157 49.3445 35.9875 48.4301 34.7321C48.4005 34.693 48.3788 34.6337 48.4085 34.5879C48.4313 34.5521 48.4769 34.532 48.5192 34.523C48.8274 34.4615 49.1436 34.428 49.4735 34.428Z" fill="white"/>
</g>
<defs>
<filter id="filter0_d_8204_46414" x="0" y="0" width="90" height="90" filterUnits="userSpaceOnUse" color-interpolation-filters="sRGB">
<feFlood flood-opacity="0" result="BackgroundImageFix"/>
<feColorMatrix in="SourceAlpha" type="matrix" values="0 0 0 0 0 0 0 0 0 0 0 0 0 0 0 0 0 0 127 0" result="hardAlpha"/>
<feOffset dy="1"/>
<feGaussianBlur stdDeviation="10"/>
<feComposite in2="hardAlpha" operator="out"/>
<feColorMatrix type="matrix" values="0 0 0 0 0 0 0 0 0 0 0 0 0 0 0 0 0 0 0.05 0"/>
<feBlend mode="normal" in2="BackgroundImageFix" result="effect1_dropShadow_8204_46414"/>
<feBlend mode="normal" in="SourceGraphic" in2="effect1_dropShadow_8204_46414" result="shape"/>
</filter>
</defs>
</svg>
